<?xml version="1.0" encoding="UTF-8" standalone="no"?>
<!DOCTYPE svg PUBLIC "-//W3C//DTD SVG 1.1//EN" "http://www.w3.org/Graphics/SVG/1.1/DTD/svg11.dtd">
<svg xmlns="http://www.w3.org/2000/svg" version="1.1" viewBox="0.00 0.00 1024.00 1024.00">
<path fill="#212f35" d="
  M 249.82 338.36
  C 251.00 334.61 252.36 329.66 253.94 325.40
  Q 258.61 312.81 264.45 300.72
  C 265.13 299.30 266.09 298.09 266.69 296.70
  C 268.73 291.98 271.38 287.68 273.68 283.11
  C 274.48 281.52 275.68 280.12 276.48 278.67
  Q 278.34 275.32 280.45 272.13
  C 283.25 267.91 285.91 263.36 288.99 259.27
  C 298.79 246.24 309.14 234.08 318.83 224.57
  C 349.28 194.66 387.73 172.51 428.18 159.21
  C 433.93 157.31 440.54 155.77 446.77 154.03
  Q 455.23 151.67 468.40 149.85
  C 472.60 149.28 477.53 147.79 481.75 147.55
  Q 509.90 145.89 538.03 147.36
  Q 543.15 147.62 549.88 148.86
  C 556.52 150.08 562.97 150.62 569.71 152.29
  C 573.28 153.18 576.95 153.65 580.38 154.63
  C 585.67 156.14 591.01 157.26 596.12 159.06
  C 602.04 161.14 608.26 163.06 613.82 165.39
  C 659.34 184.40 698.03 212.77 728.27 251.79
  Q 736.82 262.82 740.07 268.43
  C 742.79 273.13 745.94 277.73 748.48 282.31
  C 753.35 291.11 756.95 297.50 762.13 309.01
  C 764.87 315.07 767.20 321.84 769.77 328.26
  C 770.98 331.29 771.71 335.05 773.16 338.36
  C 774.08 340.48 774.42 343.17 774.95 344.88
  C 775.77 347.50 776.79 349.83 777.23 352.59
  C 778.15 358.40 780.32 363.78 780.75 369.60
  Q 781.29 376.95 782.73 384.17
  Q 783.82 389.69 783.95 393.93
  Q 784.63 416.69 784.03 439.43
  C 783.79 448.66 781.88 458.11 780.70 467.53
  C 780.14 472.05 778.57 476.57 777.69 481.20
  Q 777.06 484.51 775.95 488.20
  C 775.01 491.32 774.48 494.54 773.44 497.54
  C 772.02 501.64 770.94 505.97 769.42 509.82
  Q 766.81 516.40 764.10 522.94
  Q 751.64 553.04 732.50 579.26
  C 710.98 608.75 681.73 634.89 651.09 653.10
  Q 613.52 675.41 570.77 684.67
  C 564.65 686.00 558.37 687.41 552.15 688.17
  C 542.51 689.36 532.86 690.75 523.24 691.01
  C 499.80 691.64 483.34 690.68 463.48 686.74
  C 456.55 685.37 449.58 684.20 442.92 682.35
  C 422.94 676.79 406.02 670.61 387.92 661.53
  C 326.91 630.88 278.71 577.64 254.99 513.77
  C 252.52 507.12 250.32 499.51 248.09 492.33
  Q 247.21 489.49 246.00 484.03
  C 245.16 480.26 243.86 476.62 243.27 472.93
  C 242.13 465.74 240.61 458.86 239.86 451.42
  Q 239.45 447.39 238.73 441.75
  C 236.37 423.23 237.94 404.46 239.93 384.61
  Q 240.40 379.91 241.75 372.49
  Q 245.34 352.62 249.82 338.36
  Z
  M 398.05 503.20
  Q 400.45 507.18 403.73 508.35
  C 407.81 509.80 412.17 511.09 416.55 510.15
  C 419.99 509.42 424.02 508.48 426.80 506.07
  Q 433.28 500.42 435.43 492.54
  Q 437.97 483.19 437.94 473.50
  Q 437.91 459.38 437.86 445.25
  Q 437.86 443.49 437.62 442.31
  A 1.67 1.67 0.0 0 0 435.98 440.97
  L 366.00 441.16
  Q 364.99 441.17 364.72 440.03
  Q 364.26 438.09 364.28 436.00
  Q 364.44 417.28 364.33 399.94
  Q 364.32 397.47 366.78 397.50
  L 392.47 397.73
  A 1.12 1.12 0.0 0 1 393.57 398.74
  C 394.25 405.72 394.52 413.53 394.04 420.66
  Q 393.83 423.71 393.86 427.21
  A 1.57 1.56 5.5 0 0 395.12 428.73
  Q 395.78 428.86 397.00 428.88
  Q 407.84 429.03 418.49 429.02
  A 0.96 0.96 0.0 0 0 419.45 428.08
  L 419.61 420.66
  Q 419.65 419.21 421.09 419.15
  L 426.95 418.88
  Q 428.71 418.80 428.87 420.56
  L 429.43 426.57
  A 2.86 2.85 89.5 0 0 432.06 429.16
  L 435.14 429.39
  Q 437.99 429.60 438.00 426.73
  Q 438.02 348.83 437.70 272.75
  Q 437.69 271.26 437.66 270.16
  A 1.06 1.06 0.0 0 1 438.69 269.08
  Q 462.90 268.42 487.11 269.18
  Q 488.76 269.23 488.80 270.88
  Q 488.88 273.71 488.90 277.50
  Q 489.43 375.75 488.99 474.00
  C 488.93 486.77 488.27 495.66 484.89 506.58
  A 1.45 1.45 0.0 0 0 486.34 508.46
  L 494.81 508.08
  Q 495.98 508.03 495.99 509.21
  Q 496.06 527.18 496.03 545.13
  C 496.02 547.54 495.77 549.80 498.73 549.61
  Q 510.25 548.86 520.50 549.61
  Q 521.97 549.71 522.99 549.56
  A 1.14 1.14 0.0 0 0 523.96 548.49
  Q 524.51 539.02 524.49 529.75
  C 524.32 444.67 524.14 359.58 524.20 274.50
  Q 524.20 272.14 524.03 270.15
  A 1.07 1.06 87.0 0 1 525.07 268.99
  Q 561.15 268.56 596.82 268.99
  C 603.60 269.07 609.31 270.31 615.85 271.81
  C 636.98 276.64 653.99 292.09 661.97 312.02
  C 667.16 324.96 666.96 341.24 665.98 354.92
  Q 665.21 365.72 662.25 373.71
  Q 652.75 399.37 626.55 411.28
  Q 622.50 413.12 618.98 413.99
  Q 618.55 414.09 618.91 414.35
  C 620.64 415.56 621.83 416.91 623.74 417.84
  C 637.51 424.52 646.55 435.46 651.63 449.72
  C 652.75 452.85 652.91 456.18 653.37 459.53
  A 1.72 1.71 5.5 0 0 654.53 460.93
  Q 657.84 462.04 661.50 461.87
  C 668.98 461.52 675.51 461.39 683.83 461.77
  Q 692.17 462.15 700.52 461.79
  C 702.44 461.70 704.46 462.02 706.43 461.96
  A 1.06 1.06 0.0 0 1 707.52 462.96
  C 708.20 474.83 706.68 486.77 707.22 498.63
  Q 707.27 499.67 707.73 500.20
  A 0.70 0.70 0.0 0 0 708.84 500.12
  C 710.72 497.30 711.94 494.91 712.91 491.45
  C 714.35 486.31 716.10 481.43 717.22 476.20
  C 717.93 472.92 719.27 469.67 720.03 466.27
  Q 720.62 463.61 721.57 460.18
  C 723.32 453.90 723.12 446.83 723.97 441.34
  C 726.09 427.56 726.79 414.54 724.62 400.71
  Q 723.70 394.93 723.43 391.64
  C 723.03 386.89 722.96 382.37 721.47 377.66
  C 720.20 373.64 719.83 369.43 718.45 365.35
  C 717.25 361.79 716.75 358.23 715.59 354.70
  Q 708.80 334.01 698.35 314.91
  C 671.30 265.44 626.46 230.29 572.93 213.39
  C 567.39 211.64 561.40 210.67 556.39 209.37
  Q 540.20 205.16 522.00 204.80
  Q 497.88 204.32 489.75 205.35
  C 439.78 211.67 392.21 233.76 357.42 270.18
  Q 347.55 280.51 344.06 285.30
  Q 339.35 291.74 334.88 298.33
  Q 312.00 332.01 302.48 371.49
  Q 301.54 375.37 300.76 380.56
  C 299.60 388.25 298.21 395.95 297.88 403.40
  C 297.19 419.03 296.64 435.61 299.88 450.99
  C 300.88 455.74 300.81 460.50 302.09 465.18
  Q 305.07 476.10 308.11 486.99
  Q 309.23 491.02 311.63 492.87
  Q 312.98 493.92 312.96 492.21
  C 312.88 482.63 312.16 473.46 312.46 464.04
  A 1.46 1.46 0.0 0 1 313.66 462.65
  C 319.12 461.68 325.66 462.30 329.39 462.17
  Q 354.56 461.30 379.75 461.76
  Q 383.71 461.84 387.56 462.99
  A 1.66 1.65 -10.5 0 1 388.34 463.52
  Q 390.16 465.87 390.19 468.08
  C 390.39 480.45 388.79 493.33 398.01 503.14
  Q 398.03 503.17 398.05 503.20
  Z
  M 572.13 315.29
  L 572.45 375.33
  A 2.59 2.59 0.0 0 0 575.05 377.91
  L 591.86 377.82
  A 26.36 26.32 89.7 0 0 618.04 351.32
  L 617.98 338.82
  A 26.36 26.32 89.7 0 0 591.52 312.60
  L 574.71 312.69
  A 2.59 2.59 0.0 0 0 572.13 315.29
  Z
  M 377.05 428.95
  L 380.13 428.97
  A 1.27 1.27 0.0 0 0 381.40 427.70
  L 381.43 419.95
  A 10.38 1.61 -89.8 0 0 379.85 409.56
  L 377.45 409.56
  A 10.38 1.61 -89.8 0 0 375.81 419.93
  L 375.78 427.68
  A 1.27 1.27 0.0 0 0 377.05 428.95
  Z
  M 572.64 544.00
  C 572.64 546.02 572.55 548.93 575.43 548.85
  Q 589.47 548.48 603.27 548.98
  A 1.32 1.32 0.0 0 0 604.60 547.97
  Q 605.13 545.75 605.16 543.75
  Q 605.71 505.63 605.47 467.50
  C 605.44 461.91 604.65 456.69 601.38 452.03
  Q 592.21 439.01 574.41 438.30
  Q 573.21 438.25 572.94 439.42
  Q 572.45 441.56 572.46 444.75
  Q 572.63 494.37 572.64 544.00
  Z
  M 379.12 548.69
  L 379.17 548.30
  Q 379.19 548.16 379.06 548.10
  Q 375.49 546.26 371.93 544.35
  C 357.78 536.74 347.71 522.34 343.28 507.13
  C 342.23 503.53 341.73 499.36 340.94 495.40
  C 339.63 488.86 339.54 482.95 339.25 476.39
  A 2.70 2.70 0.0 0 0 336.58 473.81
  L 326.20 473.68
  A 2.50 2.50 0.0 0 0 323.67 476.16
  Q 323.49 495.01 323.40 514.00
  Q 323.38 519.21 324.92 522.26
  Q 329.64 531.63 339.08 544.93
  C 341.38 548.16 343.16 550.27 346.63 550.15
  Q 361.07 549.66 375.50 549.96
  Q 376.33 549.98 379.41 549.30
  A 0.07 0.07 0.0 0 0 379.44 549.19
  L 379.21 548.96
  Q 379.10 548.85 379.12 548.69
  Z
  M 682.08 475.88
  L 681.99 530.65
  A 1.97 1.97 0.0 0 0 683.95 532.62
  L 692.43 532.65
  Q 693.13 532.65 693.51 532.07
  C 697.36 526.26 697.17 521.99 697.21 513.93
  Q 697.29 497.34 697.33 480.75
  Q 697.34 477.84 696.56 475.41
  Q 696.39 474.88 695.85 474.70
  Q 689.87 472.72 683.66 473.96
  A 1.96 1.96 0.0 0 0 682.08 475.88
  Z
  M 671.7209 478.9176
  A 4.18 4.18 0.0 0 0 667.6969 474.5873
  L 657.8435 474.2259
  A 4.18 4.18 0.0 0 0 653.5132 478.2500
  L 653.0991 489.5424
  A 4.18 4.18 0.0 0 0 657.1231 493.8727
  L 666.9765 494.2341
  A 4.18 4.18 0.0 0 0 671.3068 490.2100
  L 671.7209 478.9176
  Z
  M 654.16 532.06
  Q 654.11 532.08 654.07 532.10
  Q 653.94 532.15 654.01 532.26
  Q 654.11 532.43 654.30 532.29
  Q 654.49 532.17 654.72 532.18
  L 669.67 532.78
  A 1.09 1.08 -85.4 0 0 670.79 531.82
  C 671.67 524.57 672.29 517.02 670.63 509.84
  Q 670.30 508.43 668.85 508.47
  L 654.95 508.84
  A 1.70 1.70 0.0 0 0 653.29 510.49
  Q 653.04 519.00 652.97 527.25
  Q 652.96 529.19 653.28 531.14
  A 0.51 0.51 0.0 0 0 653.73 531.57
  Q 654.09 531.61 654.21 531.90
  Q 654.26 532.00 654.16 532.06
  Z
  M 449.47 548.47
  L 448.69 548.96
  Q 448.32 549.19 448.76 549.22
  C 455.27 549.68 463.63 548.99 468.08 549.00
  Q 474.76 549.02 481.65 549.47
  A 1.65 1.64 2.9 0 0 483.41 547.89
  Q 483.95 532.37 483.40 516.55
  Q 483.36 515.58 482.36 514.57
  A 1.32 1.27 22.5 0 1 481.99 513.72
  L 481.96 512.76
  Q 481.95 512.42 481.68 512.64
  Q 481.24 513.02 481.18 513.24
  C 479.43 519.97 474.78 525.90 470.29 531.28
  C 464.58 538.12 458.04 542.64 450.24 546.46
  Q 449.60 546.77 449.99 547.36
  Q 450.10 547.53 449.96 547.75
  Q 449.57 548.40 449.47 548.47
  Z
  M 666.85 548.62
  C 665.32 548.36 664.22 548.04 662.23 548.35
  A 0.35 0.35 0.0 0 0 662.23 549.04
  Q 664.62 549.41 666.85 548.56
  Q 666.86 548.56 666.86 548.56
  Q 666.86 548.57 666.87 548.58
  Q 666.88 548.62 666.85 548.62
  Z
  M 354.76 562.90
  Q 355.12 565.14 356.52 566.50
  Q 369.59 579.21 384.45 589.79
  Q 387.50 591.96 389.76 591.98
  Q 406.92 592.06 424.13 591.99
  C 428.91 591.98 432.30 592.78 431.27 598.51
  C 430.45 603.07 427.56 603.65 423.27 603.41
  Q 415.57 602.97 407.88 602.34
  Q 407.15 602.28 406.54 602.68
  Q 406.04 603.01 406.58 603.28
  C 408.71 604.31 408.35 606.38 410.49 607.46
  Q 424.41 614.47 438.95 620.08
  Q 442.76 621.55 456.50 625.63
  C 460.92 626.94 465.73 627.47 470.41 628.59
  Q 476.54 630.06 480.88 630.52
  C 489.63 631.46 498.58 632.77 507.07 632.93
  C 520.68 633.17 529.94 632.06 546.02 630.11
  C 550.07 629.61 554.18 628.18 558.39 627.44
  C 568.65 625.63 576.92 622.18 586.26 619.28
  Q 590.30 618.02 600.18 613.05
  C 603.90 611.18 609.41 609.17 613.86 606.45
  A 0.72 0.72 0.0 0 0 613.79 605.18
  Q 613.02 604.82 613.48 604.11
  Q 613.80 603.63 613.22 603.61
  C 607.64 603.44 602.05 604.41 596.54 603.96
  C 592.37 603.61 591.00 601.90 590.68 597.84
  Q 590.24 592.24 595.51 592.17
  Q 610.10 591.97 624.68 591.97
  C 630.48 591.97 633.65 592.21 637.69 589.67
  Q 642.19 586.85 647.41 582.40
  Q 657.99 573.37 668.59 564.20
  A 0.76 0.75 -69.5 0 0 667.99 562.88
  Q 667.31 562.98 667.12 562.59
  Q 666.87 562.08 666.29 562.10
  Q 649.44 562.81 619.75 562.82
  Q 512.07 562.87 404.40 562.74
  C 388.89 562.72 373.46 562.62 358.24 561.26
  Q 356.26 561.09 355.15 561.92
  Q 354.66 562.29 354.76 562.90
  Z"
/>
<path fill="#212f35" d="
  M 514.35 308.35
  A 1.55 1.55 0.0 0 1 512.79 309.89
  L 507.94 309.86
  A 3.60 2.50 0.3 0 1 504.35 307.34
  L 504.39 300.46
  A 3.60 2.50 0.3 0 1 508.00 297.98
  L 512.85 298.01
  A 1.55 1.55 0.0 0 1 514.39 299.57
  L 514.35 308.35
  Z"
/>
<path fill="#212f35" d="
  M 412.17 298.36
  A 0.99 0.99 0.0 0 1 413.15 299.36
  L 413.05 307.35
  A 2.74 2.43 -89.3 0 1 410.59 310.06
  L 405.69 310.00
  A 2.74 2.43 -89.3 0 1 403.29 307.23
  L 403.39 299.24
  A 0.99 0.99 0.0 0 1 404.39 298.26
  L 412.17 298.36
  Z"
/>
<path fill="#212f35" d="
  M 587.92 345.33
  L 587.81 337.80
  A 1.59 1.59 0.0 0 1 589.37 336.19
  L 596.65 336.07
  A 1.59 1.59 0.0 0 1 598.27 337.69
  L 598.10 345.42
  A 1.59 1.59 0.0 0 1 596.50 346.97
  L 589.49 346.90
  A 1.59 1.59 0.0 0 1 587.92 345.33
  Z"
/>
<path fill="#212f35" d="
  M 515.75 423.84
  L 515.41 431.87
  A 1.77 1.77 0.0 0 1 513.55 433.56
  L 508.60 433.29
  A 1.77 1.77 0.0 0 1 506.93 431.67
  L 506.35 424.41
  A 1.77 1.77 0.0 0 1 507.96 422.51
  L 513.83 422.00
  A 1.77 1.77 0.0 0 1 515.75 423.84
  Z"
/>
<path fill="#212f35" d="
  M 515.68 447.28
  L 515.77 455.21
  A 2.00 2.00 0.0 0 1 513.63 457.23
  L 508.36 456.86
  A 2.00 2.00 0.0 0 1 506.50 454.86
  L 506.52 447.92
  A 2.00 2.00 0.0 0 1 508.28 445.94
  L 513.44 445.32
  A 2.00 2.00 0.0 0 1 515.68 447.28
  Z"
/>
<rect fill="#212f35" x="-5.25" y="-5.57" transform="translate(587.30,464.16) rotate(-0.4)" width="10.50" height="11.14" rx="1.41"/>
<rect fill="#212f35" x="-5.07" y="-6.35" transform="translate(422.52,467.78) rotate(-0.7)" width="10.14" height="12.70" rx="1.95"/>
<rect fill="#212f35" x="-5.17" y="-6.22" transform="translate(403.81,467.77) rotate(-1.2)" width="10.34" height="12.44" rx="2.27"/>
<path fill="#212f35" d="
  M 515.76 477.49
  L 515.37 484.18
  A 1.98 1.98 0.0 0 1 513.25 486.04
  L 508.26 485.66
  A 1.98 1.98 0.0 0 1 506.44 483.88
  L 505.88 478.25
  A 1.98 1.98 0.0 0 1 507.63 476.09
  L 513.55 475.41
  A 1.98 1.98 0.0 0 1 515.76 477.49
  Z"
/>
<rect fill="#212f35" x="-5.37" y="-5.57" transform="translate(587.40,487.54) rotate(0.4)" width="10.74" height="11.14" rx="1.82"/>
<path fill="#212f35" d="
  M 400.00 501.44
  L 398.68 494.62
  A 2.05 2.05 0.0 0 1 400.58 492.18
  L 406.76 491.84
  A 2.05 2.05 0.0 0 1 408.93 493.94
  L 408.74 501.64
  A 2.05 2.05 0.0 0 1 406.45 503.63
  L 401.78 503.09
  A 2.05 2.05 0.0 0 1 400.00 501.44
  Z"
/>
<path fill="#212f35" d="
  M 418.02 502.41
  L 417.32 494.23
  A 1.79 1.79 0.0 0 1 419.10 492.28
  L 426.15 492.27
  A 1.79 1.79 0.0 0 1 427.92 494.32
  L 426.82 501.64
  A 1.79 1.79 0.0 0 1 425.35 503.14
  L 420.10 504.02
  A 1.79 1.79 0.0 0 1 418.02 502.41
  Z"
/>
<path fill="#212f35" d="
  M 515.66 507.20
  L 515.72 513.87
  A 2.39 2.39 0.0 0 1 513.16 516.27
  L 508.44 515.93
  A 2.39 2.39 0.0 0 1 506.22 513.65
  L 505.98 507.65
  A 2.39 2.39 0.0 0 1 508.21 505.17
  L 513.11 504.84
  A 2.39 2.39 0.0 0 1 515.66 507.20
  Z"
/>
<path fill="#212f35" d="
  M 593.27 518.82
  L 592.95 526.33
  A 2.18 2.18 0.0 0 1 590.85 528.42
  L 584.19 528.67
  A 2.18 2.18 0.0 0 1 581.92 526.53
  L 581.79 518.44
  A 2.18 2.18 0.0 0 1 584.07 516.23
  L 591.19 516.55
  A 2.18 2.18 0.0 0 1 593.27 518.82
  Z"
/>
<path fill="#212f35" d="
  M 506.24 538.30
  L 506.27 530.61
  A 1.81 1.81 0.0 0 1 507.83 528.82
  L 513.69 528.03
  A 1.81 1.81 0.0 0 1 515.75 529.81
  L 515.81 538.87
  A 1.81 1.81 0.0 0 1 513.83 540.69
  L 507.88 540.11
  A 1.81 1.81 0.0 0 1 506.24 538.30
  Z"
/>
<rect fill="#212f35" x="-6.12" y="-6.41" transform="translate(462.13,598.28) rotate(1.6)" width="12.24" height="12.82" rx="5.18"/>
<circle fill="#212f35" cx="510.48" cy="598.23" r="6.68"/>
<rect fill="#212f35" x="-6.29" y="-6.49" transform="translate(534.09,598.31) rotate(-0.3)" width="12.58" height="12.98" rx="5.48"/>
<circle fill="#212f35" cx="558.28" cy="598.31" r="6.79"/>
<ellipse fill="#212f35" cx="0.00" cy="0.00" transform="translate(486.59,598.32) rotate(115.8)" rx="6.68" ry="6.55"/>
</svg>
